<?xml version="1.0" encoding="UTF-8"?>
<svg id="Layer_2" data-name="Layer 2" xmlns="http://www.w3.org/2000/svg" xmlns:xlink="http://www.w3.org/1999/xlink" viewBox="0 0 443 624">
  <defs>
    <style>
      .cls-1 {
        fill: url(#radial-gradient);
      }
    </style>
    <radialGradient id="radial-gradient" cx="221.5" cy="312" fx="221.5" fy="312" r="270.56" gradientUnits="userSpaceOnUse">
      <stop offset=".19" stop-color="#0049d4"/>
      <stop offset=".29" stop-color="#034bd4"/>
      <stop offset=".37" stop-color="#0d52d6"/>
      <stop offset=".45" stop-color="#1e5ed9"/>
      <stop offset=".52" stop-color="#3770dd"/>
      <stop offset=".59" stop-color="#5686e2"/>
      <stop offset=".65" stop-color="#7ca2e9"/>
      <stop offset=".72" stop-color="#aac2f0"/>
      <stop offset=".78" stop-color="#dde7f9"/>
      <stop offset=".81" stop-color="#fff"/>
      <stop offset="1" stop-color="#ff7f55"/>
    </radialGradient>
  </defs>
  <g id="Layer_2-2" data-name="Layer 2">
    <path class="cls-1" d="M390.35,43c5.33,0,9.65,4.32,9.65,9.65v518.7c0,5.33-4.32,9.65-9.65,9.65H52.65c-5.33,0-9.65-4.32-9.65-9.65V52.65c0-5.33,4.32-9.65,9.65-9.65h337.7M390.35,0H52.65C23.62,0,0,23.62,0,52.65v518.7c0,29.03,23.62,52.65,52.65,52.65h337.7c29.03,0,52.65-23.62,52.65-52.65V52.65c0-29.03-23.62-52.65-52.65-52.65h0Z"/>
  </g>
</svg>