<?xml version="1.0" encoding="UTF-8"?>
<svg id="Layer_2" data-name="Layer 2" xmlns="http://www.w3.org/2000/svg" xmlns:xlink="http://www.w3.org/1999/xlink" viewBox="0 0 443 624">
  <defs>
    <style>
      .cls-1 {
        fill: url(#radial-gradient);
      }
    </style>
    <radialGradient id="radial-gradient" cx="221.5" cy="312" fx="221.5" fy="312" r="270.56" gradientUnits="userSpaceOnUse">
      <stop offset=".19" stop-color="#c915ff"/>
      <stop offset=".3" stop-color="#c918ff"/>
      <stop offset=".38" stop-color="#c2f"/>
      <stop offset=".46" stop-color="#d033ff"/>
      <stop offset=".53" stop-color="#d54bff"/>
      <stop offset=".6" stop-color="#dc6bff"/>
      <stop offset=".67" stop-color="#e591ff"/>
      <stop offset=".74" stop-color="#f0bfff"/>
      <stop offset=".8" stop-color="#fcf2ff"/>
      <stop offset=".81" stop-color="#fff"/>
      <stop offset="1" stop-color="#ffe855"/>
    </radialGradient>
  </defs>
  <g id="Layer_2-2" data-name="Layer 2">
    <path class="cls-1" d="M390.35,43c5.33,0,9.65,4.32,9.65,9.65v518.7c0,5.33-4.32,9.65-9.65,9.65H52.65c-5.33,0-9.65-4.32-9.65-9.65V52.65c0-5.33,4.32-9.65,9.65-9.65h337.7M390.35,0H52.65C23.62,0,0,23.62,0,52.65v518.7c0,29.03,23.62,52.65,52.65,52.65h337.7c29.03,0,52.65-23.62,52.65-52.65V52.65c0-29.03-23.62-52.65-52.65-52.65h0Z"/>
  </g>
</svg>